<svg width="359" height="206" viewBox="0 0 359 206" fill="none" xmlns="http://www.w3.org/2000/svg">
<rect width="359" height="206" fill="black"/>
<path d="M113.88 112.624C114.053 113.144 114.279 113.404 114.556 113.404C114.833 113.404 115.059 113.127 115.232 112.572L121.94 87.82C122.113 87.196 122.529 86.884 123.188 86.884H126.984C127.365 86.884 127.643 87.0053 127.816 87.248C127.989 87.456 128.024 87.7507 127.92 88.132L117.624 124.064C117.485 124.688 117.087 125 116.428 125H112.788C112.164 125 111.765 124.688 111.592 124.064L104.416 99.156C104.277 98.6707 104.052 98.428 103.74 98.428C103.428 98.428 103.203 98.6707 103.064 99.156L95.888 124.064C95.7493 124.688 95.3507 125 94.692 125H91.052C90.428 125 90.0293 124.688 89.856 124.064L79.508 88.132C79.4733 88.028 79.456 87.9067 79.456 87.768C79.456 87.4907 79.5427 87.2827 79.716 87.144C79.8893 86.9707 80.132 86.884 80.444 86.884H84.292C84.9853 86.884 85.4013 87.196 85.54 87.82L92.248 112.572C92.4213 113.127 92.6467 113.404 92.924 113.404C93.236 113.404 93.4613 113.144 93.6 112.624L100.62 87.82C100.793 87.196 101.192 86.884 101.816 86.884H105.664C106.323 86.884 106.721 87.196 106.86 87.82L113.88 112.624ZM154.557 112.052C154.557 112.537 154.193 112.78 153.465 112.78H134.953C134.572 112.78 134.295 112.884 134.121 113.092C133.948 113.3 133.879 113.577 133.913 113.924C134.295 116.004 135.092 117.685 136.305 118.968C137.553 120.251 139.252 120.892 141.401 120.892C143.031 120.892 144.331 120.597 145.301 120.008C146.272 119.384 147.121 118.379 147.849 116.992C148.127 116.507 148.456 116.264 148.837 116.264C148.941 116.264 149.097 116.299 149.305 116.368L152.425 117.356C152.945 117.495 153.205 117.789 153.205 118.24C153.205 118.483 153.171 118.656 153.101 118.76C152.131 120.805 150.675 122.469 148.733 123.752C146.827 125.035 144.383 125.676 141.401 125.676C138.039 125.676 135.387 124.896 133.445 123.336C131.504 121.741 130.152 119.869 129.389 117.72C128.661 115.536 128.297 113.421 128.297 111.376C128.297 109.331 128.661 107.233 129.389 105.084C130.152 102.9 131.504 101.028 133.445 99.468C135.387 97.8733 138.039 97.076 141.401 97.076C144.764 97.076 147.416 97.8733 149.357 99.468C151.333 101.028 152.685 102.9 153.413 105.084C154.176 107.233 154.557 109.331 154.557 111.376V112.052ZM141.401 101.86C139.564 101.86 138.056 102.345 136.877 103.316C135.699 104.287 134.849 105.587 134.329 107.216C134.295 107.32 134.277 107.441 134.277 107.58C134.277 108.135 134.607 108.412 135.265 108.412H147.589C147.971 108.412 148.248 108.325 148.421 108.152C148.629 107.944 148.681 107.684 148.577 107.372C148.092 105.708 147.243 104.373 146.029 103.368C144.851 102.363 143.308 101.86 141.401 101.86ZM163.175 123.908C163.175 124.255 163.071 124.532 162.863 124.74C162.69 124.913 162.43 125 162.083 125H158.703C158.357 125 158.079 124.913 157.871 124.74C157.698 124.532 157.611 124.255 157.611 123.908V87.976C157.611 87.6293 157.698 87.3693 157.871 87.196C158.079 86.988 158.357 86.884 158.703 86.884H162.083C162.43 86.884 162.69 86.988 162.863 87.196C163.071 87.3693 163.175 87.6293 163.175 87.976V123.908ZM174.16 123.908C174.16 124.255 174.056 124.532 173.848 124.74C173.675 124.913 173.415 125 173.068 125H169.688C169.342 125 169.064 124.913 168.856 124.74C168.683 124.532 168.596 124.255 168.596 123.908V87.976C168.596 87.6293 168.683 87.3693 168.856 87.196C169.064 86.988 169.342 86.884 169.688 86.884H173.068C173.415 86.884 173.675 86.988 173.848 87.196C174.056 87.3693 174.16 87.6293 174.16 87.976V123.908Z" fill="white"/>
<path d="M191.98 110.425C191.32 111.012 190.843 111.617 190.55 112.24C189.78 113.597 189.157 115.027 188.68 116.53C188.203 118.033 187.837 119.573 187.58 121.15C187.543 121.517 187.47 121.883 187.36 122.25C187.25 122.617 187.103 122.947 186.92 123.24C186.37 124.157 185.637 124.56 184.72 124.45C184.243 124.45 183.84 124.322 183.51 124.065C183.18 123.808 182.887 123.478 182.63 123.075C182.483 122.745 182.373 122.397 182.3 122.03C182.263 121.663 182.208 121.297 182.135 120.93C181.952 119.463 181.75 117.997 181.53 116.53C181.347 115.027 181.218 113.542 181.145 112.075C181.072 111.085 181.072 110.095 181.145 109.105C181.218 108.115 181.328 107.125 181.475 106.135C181.475 105.952 181.512 105.787 181.585 105.64C181.658 105.457 181.713 105.292 181.75 105.145C182.08 104.228 182.685 103.825 183.565 103.935C183.932 103.972 184.262 104.137 184.555 104.43C184.848 104.723 185.013 105.072 185.05 105.475C185.16 106.355 185.252 107.217 185.325 108.06C185.435 108.903 185.563 109.747 185.71 110.59C185.747 110.737 185.765 110.92 185.765 111.14C185.765 111.323 185.82 111.507 185.93 111.69C186.113 111.617 186.223 111.525 186.26 111.415C186.297 111.268 186.333 111.14 186.37 111.03C186.737 110.297 187.103 109.582 187.47 108.885C187.837 108.152 188.258 107.492 188.735 106.905C188.955 106.612 189.175 106.337 189.395 106.08C189.615 105.787 189.872 105.53 190.165 105.31C191.118 104.54 192.145 104.247 193.245 104.43C194.345 104.577 195.243 105.182 195.94 106.245C196.27 106.832 196.527 107.455 196.71 108.115C196.893 108.738 197.022 109.38 197.095 110.04C197.278 111.14 197.425 112.258 197.535 113.395C197.682 114.495 197.828 115.595 197.975 116.695C198.048 117.355 198.14 118.015 198.25 118.675C198.397 119.298 198.507 119.94 198.58 120.6C198.653 120.857 198.745 121.077 198.855 121.26C198.965 121.443 199.148 121.627 199.405 121.81C200.175 122.213 200.413 122.855 200.12 123.735C199.79 124.652 199.222 125.22 198.415 125.44C197.608 125.66 196.838 125.477 196.105 124.89C195.775 124.597 195.5 124.285 195.28 123.955C195.06 123.625 194.858 123.277 194.675 122.91C194.088 121.847 193.648 120.765 193.355 119.665C193.062 118.565 192.842 117.41 192.695 116.2C192.585 115.357 192.493 114.495 192.42 113.615C192.347 112.735 192.218 111.873 192.035 111.03C192.035 110.957 192.017 110.883 191.98 110.81C191.98 110.7 191.98 110.572 191.98 110.425ZM219.072 112.845C218.888 116.438 217.568 119.793 215.112 122.91C214.672 123.497 214.158 124.01 213.572 124.45C212.985 124.853 212.325 125.165 211.592 125.385C210.162 125.715 208.787 125.55 207.467 124.89C206.99 124.597 206.532 124.248 206.092 123.845C205.652 123.405 205.285 122.947 204.992 122.47C204.038 120.967 203.397 119.427 203.067 117.85C202.737 116.237 202.627 114.587 202.737 112.9C202.883 111.397 203.213 109.967 203.727 108.61C204.24 107.217 204.992 105.952 205.982 104.815C206.825 103.898 207.833 103.33 209.007 103.11C209.557 102.963 210.052 102.963 210.492 103.11C210.932 103.22 211.353 103.44 211.757 103.77C211.867 103.88 211.995 103.953 212.142 103.99C212.288 103.99 212.453 103.99 212.637 103.99C213.627 103.88 214.507 104.027 215.277 104.43C216.083 104.833 216.78 105.438 217.367 106.245C218.027 107.162 218.467 108.152 218.687 109.215C218.943 110.242 219.072 111.452 219.072 112.845ZM211.262 108.72C210.858 108.72 210.437 108.775 209.997 108.885C209.63 108.885 209.355 108.977 209.172 109.16C208.988 109.343 208.823 109.6 208.677 109.93C208.163 111.287 207.888 112.643 207.852 114C207.852 115.357 208.053 116.732 208.457 118.125C208.677 118.712 209.025 119.317 209.502 119.94C209.758 120.197 209.942 120.343 210.052 120.38C210.198 120.38 210.4 120.252 210.657 119.995C210.987 119.665 211.298 119.335 211.592 119.005C211.922 118.638 212.197 118.253 212.417 117.85C212.6 117.41 212.783 116.952 212.967 116.475C213.187 115.998 213.352 115.522 213.462 115.045C213.645 114.348 213.792 113.652 213.902 112.955C214.012 112.222 213.975 111.488 213.792 110.755C213.608 109.985 213.333 109.453 212.967 109.16C212.6 108.867 212.032 108.72 211.262 108.72ZM230.984 122.58C231.828 121.957 232.488 121.297 232.964 120.6C233.624 119.683 234.266 118.748 234.889 117.795C235.549 116.842 236.118 115.852 236.594 114.825C236.631 114.678 236.668 114.568 236.704 114.495C236.741 114.385 236.759 114.275 236.759 114.165C236.796 113.395 237.236 112.918 238.079 112.735C238.923 112.662 239.546 112.973 239.949 113.67C240.169 113.927 240.298 114.202 240.334 114.495C240.408 114.752 240.444 115.045 240.444 115.375C240.298 117.318 239.784 119.188 238.904 120.985C237.804 123.148 236.338 124.945 234.504 126.375C234.101 126.705 233.679 126.98 233.239 127.2C232.836 127.457 232.378 127.64 231.864 127.75C230.948 127.97 230.031 127.878 229.114 127.475C228.198 127.108 227.464 126.522 226.914 125.715C226.584 125.165 226.291 124.597 226.034 124.01C225.778 123.387 225.558 122.763 225.374 122.14C224.898 120.783 224.549 119.39 224.329 117.96C224.109 116.53 223.908 115.1 223.724 113.67C223.431 111.617 223.211 109.527 223.064 107.4C222.881 105.273 222.789 103.147 222.789 101.02C222.789 100.617 222.753 100.378 222.679 100.305C222.606 100.232 222.349 100.232 221.909 100.305C221.433 100.415 220.956 100.543 220.479 100.69C219.966 100.8 219.453 100.892 218.939 100.965C218.316 101.112 217.656 101.02 216.959 100.69C216.299 100.287 215.933 99.7367 215.859 99.04C215.786 98.3067 216.006 97.6833 216.519 97.17C217.033 96.73 217.583 96.4183 218.169 96.235C218.829 96.0517 219.489 95.8683 220.149 95.685C220.773 95.5017 221.414 95.3367 222.074 95.19C222.514 95.1167 222.789 95.0433 222.899 94.97C222.973 94.86 223.028 94.5667 223.064 94.09C223.101 92.8433 223.211 91.615 223.394 90.405C223.541 89.1583 223.779 87.9117 224.109 86.665C224.256 86.225 224.384 85.785 224.494 85.345C224.641 84.8683 224.843 84.4283 225.099 84.025C225.319 83.7317 225.539 83.475 225.759 83.255C225.979 82.9983 226.236 82.7967 226.529 82.65C227.226 82.1733 227.996 82.1367 228.839 82.54C229.206 82.7967 229.426 83.1083 229.499 83.475C229.609 83.8417 229.628 84.2267 229.554 84.63C229.481 85.4367 229.334 86.2433 229.114 87.05C228.894 87.82 228.748 88.6267 228.674 89.47C228.601 90.1667 228.509 90.8633 228.399 91.56C228.326 92.2567 228.253 92.9717 228.179 93.705C228.179 94.035 228.198 94.2367 228.234 94.31C228.308 94.3467 228.528 94.365 228.894 94.365C229.628 94.365 230.324 94.3467 230.984 94.31C231.644 94.2733 232.323 94.255 233.019 94.255C234.266 94.255 235.311 94.7317 236.154 95.685C236.374 95.8683 236.539 96.0883 236.649 96.345C236.796 96.565 236.888 96.8033 236.924 97.06C236.998 97.6833 236.796 98.2333 236.319 98.71C235.843 99.15 235.348 99.26 234.834 99.04C234.761 99.04 234.669 99.04 234.559 99.04C234.486 99.0033 234.394 99.0033 234.284 99.04C233.478 99.3333 232.653 99.4617 231.809 99.425C231.003 99.3883 230.178 99.425 229.334 99.535H228.564C228.124 99.535 227.904 99.755 227.904 100.195C227.978 100.892 228.014 101.588 228.014 102.285C228.014 102.945 228.033 103.623 228.069 104.32C228.143 106.117 228.271 107.913 228.454 109.71C228.638 111.507 228.876 113.285 229.169 115.045C229.279 115.962 229.408 116.878 229.554 117.795C229.738 118.675 229.958 119.573 230.214 120.49C230.288 120.82 230.398 121.15 230.544 121.48C230.691 121.81 230.838 122.177 230.984 122.58ZM244.63 115.155C244.63 113.432 244.868 111.782 245.345 110.205C245.858 108.592 246.518 107.015 247.325 105.475C247.728 104.742 248.205 104.045 248.755 103.385C249.305 102.725 249.928 102.157 250.625 101.68C251.578 101.02 252.568 100.635 253.595 100.525C254.695 100.452 255.685 100.69 256.565 101.24C257.445 101.79 258.123 102.542 258.6 103.495C259.077 104.412 259.223 105.457 259.04 106.63C259.003 106.96 258.93 107.308 258.82 107.675C258.71 108.042 258.563 108.39 258.38 108.72C257.903 109.637 257.335 110.517 256.675 111.36C256.052 112.167 255.282 112.882 254.365 113.505C253.778 113.908 253.155 114.257 252.495 114.55C251.872 114.807 251.193 114.917 250.46 114.88C250.203 114.88 250.038 114.917 249.965 114.99C249.928 115.063 249.91 115.228 249.91 115.485C249.873 116.072 249.91 116.658 250.02 117.245C250.13 117.832 250.277 118.418 250.46 119.005C250.68 119.482 250.882 119.757 251.065 119.83C251.248 119.903 251.578 119.793 252.055 119.5C252.752 119.133 253.375 118.638 253.925 118.015C254.255 117.722 254.585 117.465 254.915 117.245C255.245 116.988 255.575 116.732 255.905 116.475C256.052 116.328 256.272 116.182 256.565 116.035C257.115 115.852 257.573 115.907 257.94 116.2C258.343 116.457 258.545 116.878 258.545 117.465C258.545 117.722 258.527 117.978 258.49 118.235C258.453 118.492 258.398 118.748 258.325 119.005C257.848 120.398 257.17 121.608 256.29 122.635C255.41 123.662 254.218 124.413 252.715 124.89C250.625 125.44 248.81 124.945 247.27 123.405C246.463 122.598 245.895 121.7 245.565 120.71C245.235 119.72 244.978 118.693 244.795 117.63C244.758 117.227 244.722 116.823 244.685 116.42C244.685 115.98 244.667 115.558 244.63 115.155ZM254.915 106.08C254.915 105.823 254.897 105.603 254.86 105.42C254.823 105.2 254.713 105.053 254.53 104.98C254.273 104.833 253.943 104.925 253.54 105.255C253.393 105.328 253.265 105.42 253.155 105.53C253.045 105.64 252.917 105.768 252.77 105.915C252.293 106.502 251.89 107.143 251.56 107.84C251.267 108.537 250.992 109.233 250.735 109.93C250.552 110.187 250.57 110.388 250.79 110.535C250.863 110.608 250.955 110.645 251.065 110.645C251.212 110.608 251.322 110.572 251.395 110.535C253.045 109.618 254.2 108.262 254.86 106.465C254.897 106.392 254.915 106.318 254.915 106.245C254.915 106.135 254.915 106.08 254.915 106.08ZM272.838 120.82C272.581 120.747 272.324 120.673 272.068 120.6C271.848 120.49 271.609 120.398 271.353 120.325C266.366 118.418 263.671 114.843 263.268 109.6C263.121 107.913 263.378 106.355 264.038 104.925C264.698 103.495 265.724 102.285 267.118 101.295C267.998 100.672 268.914 100.268 269.868 100.085C270.821 99.9017 271.811 100.085 272.838 100.635C273.168 100.782 273.479 100.983 273.773 101.24C274.103 101.497 274.359 101.79 274.543 102.12C276.486 105.053 276.816 108.152 275.533 111.415C275.423 111.818 275.166 112.13 274.763 112.35C274.396 112.57 274.029 112.643 273.663 112.57C272.819 112.497 272.343 111.928 272.233 110.865C272.233 110.352 272.233 109.857 272.233 109.38C272.269 108.867 272.251 108.372 272.178 107.895C272.141 107.492 272.049 107.107 271.903 106.74C271.793 106.337 271.609 105.97 271.353 105.64C270.949 105.2 270.528 105.145 270.088 105.475C269.648 105.842 269.299 106.282 269.043 106.795C268.786 107.272 268.584 107.803 268.438 108.39C268.254 109.637 268.511 110.883 269.208 112.13C269.941 113.377 270.821 114.275 271.848 114.825C272.471 115.155 273.094 115.43 273.718 115.65C274.341 115.833 275.001 115.998 275.698 116.145C276.028 116.218 276.339 116.31 276.633 116.42C276.963 116.53 277.293 116.622 277.623 116.695C278.466 117.025 279.071 117.575 279.438 118.345C279.804 119.078 279.878 119.885 279.658 120.765C279.511 121.572 279.108 122.305 278.448 122.965C277.641 123.882 276.724 124.652 275.698 125.275C274.671 125.898 273.626 126.503 272.563 127.09C271.903 127.42 271.243 127.713 270.583 127.97C269.959 128.263 269.281 128.465 268.548 128.575C268.218 128.612 267.888 128.612 267.558 128.575C267.264 128.538 266.953 128.483 266.623 128.41C265.706 128.117 265.156 127.585 264.973 126.815C264.789 126.082 264.826 125.403 265.083 124.78C265.266 124.267 265.541 123.827 265.908 123.46C266.201 123.203 266.494 123.038 266.788 122.965C267.118 122.892 267.429 122.947 267.723 123.13C267.979 123.277 268.199 123.332 268.383 123.295C268.566 123.258 268.749 123.203 268.933 123.13C269.446 122.837 269.959 122.562 270.473 122.305C271.023 122.048 271.554 121.773 272.068 121.48C272.214 121.407 272.361 121.315 272.508 121.205C272.654 121.095 272.764 120.967 272.838 120.82Z" fill="#79D800"/>
</svg>
