<svg width="48" height="48" viewBox="0 0 48 48" fill="none" xmlns="http://www.w3.org/2000/svg">
<g clip-path="url(#clip0_229_2)">
<path d="M33.5999 19.2C33.5999 21.7461 32.5885 24.1879 30.7881 25.9882C28.9878 27.7886 26.546 28.8 23.9999 28.8C21.4538 28.8 19.012 27.7886 17.2117 25.9882C15.4113 24.1879 14.3999 21.7461 14.3999 19.2C14.3999 16.6539 15.4113 14.2121 17.2117 12.4118C19.012 10.6114 21.4538 9.59998 23.9999 9.59998C26.546 9.59998 28.9878 10.6114 30.7881 12.4118C32.5885 14.2121 33.5999 16.6539 33.5999 19.2Z" fill="#A6FFA3"/>
<path fill-rule="evenodd" clip-rule="evenodd" d="M23.0208 47.9808C10.2204 47.4672 0 36.9264 0 24C0 10.7448 10.7448 0 24 0C37.2552 0 48 10.7448 48 24C48 37.2552 37.2552 48 24 48H23.6712C23.4536 48 23.2368 47.9936 23.0208 47.9808ZM8.5992 39.144C8.41976 38.6287 8.35868 38.0796 8.4205 37.5374C8.48232 36.9953 8.66545 36.474 8.95629 36.0123C9.24714 35.5506 9.63824 35.1604 10.1005 34.8705C10.5629 34.5807 11.0845 34.3987 11.6268 34.338C20.982 33.3024 27.0756 33.396 36.3852 34.3596C36.9282 34.4161 37.4512 34.5959 37.9142 34.8851C38.3773 35.1743 38.7682 35.5653 39.0573 36.0284C39.3464 36.4916 39.526 37.0146 39.5824 37.5576C39.6388 38.1006 39.5705 38.6493 39.3828 39.162C43.3729 35.1252 45.6074 29.676 45.6 24C45.6 12.0708 35.9292 2.4 24 2.4C12.0708 2.4 2.4 12.0708 2.4 24C2.4 29.8992 4.7652 35.2464 8.5992 39.144Z" fill="#A6FFA3"/>
</g>
<defs>
<clipPath id="clip0_229_2">
<rect width="48" height="48" fill="white"/>
</clipPath>
</defs>
</svg>
